<?xml version="1.0" encoding="UTF-8" standalone="no"?>
<!DOCTYPE svg PUBLIC "-//W3C//DTD SVG 1.1//EN"
 "http://www.w3.org/Graphics/SVG/1.1/DTD/svg11.dtd">
<!-- Generated by graphviz version 2.40.1 (20161225.0304)
 -->
<!-- Title: %3 Pages: 1 -->
<svg width="474pt" height="633pt"
 viewBox="0.00 0.00 473.75 633.00" xmlns="http://www.w3.org/2000/svg" xmlns:xlink="http://www.w3.org/1999/xlink">
<g id="graph0" class="graph" transform="scale(1 1) rotate(0) translate(4 629)">
<title>%3</title>
<polygon fill="#ffffff" stroke="transparent" points="-4,4 -4,-629 469.75,-629 469.75,4 -4,4"/>
<!-- DomainVariable -->
<g id="node1" class="node">
<title>DomainVariable</title>
<polygon fill="#c3ffff" stroke="#000000" stroke-width="2" points="116.25,-625 8.25,-625 8.25,-575 116.25,-575 116.25,-625"/>
<text text-anchor="middle" x="62.25" y="-603.8" font-family="Arial" font-size="14.00" fill="#000000">CN::Domain</text>
<text text-anchor="middle" x="62.25" y="-588.8" font-family="Arial" font-size="14.00" fill="#000000">Variable</text>
</g>
<!-- route9 -->
<g id="node22" class="node">
<title>route9</title>
<polygon fill="#c3ffc2" stroke="transparent" stroke-width="2" points="62.75,-426.5 61.75,-426.5 61.75,-425.5 62.75,-425.5 62.75,-426.5"/>
</g>
<!-- DomainVariable&#45;&gt;route9 -->
<g id="edge16" class="edge">
<title>DomainVariable&#45;&gt;route9</title>
<path fill="none" stroke="#000000" d="M62.25,-564.6989C62.25,-564.6989 62.25,-426.6464 62.25,-426.6464"/>
<polygon fill="#000000" stroke="#000000" points="62.25,-574.6989 57.7501,-564.6989 62.25,-569.6989 62.2501,-564.6989 62.2501,-564.6989 62.2501,-564.6989 62.25,-569.6989 66.7501,-564.699 62.25,-574.6989 62.25,-574.6989"/>
</g>
<!-- DataVariable -->
<g id="node2" class="node">
<title>DataVariable</title>
<polygon fill="#c3ffff" stroke="#000000" stroke-width="2" points="280.25,-625 172.25,-625 172.25,-575 280.25,-575 280.25,-625"/>
<text text-anchor="middle" x="226.25" y="-603.8" font-family="Arial" font-size="14.00" fill="#000000">CN::Data</text>
<text text-anchor="middle" x="226.25" y="-588.8" font-family="Arial" font-size="14.00" fill="#000000">Variable</text>
</g>
<!-- Field -->
<g id="node4" class="node">
<title>Field</title>
<polygon fill="#c3ffc2" stroke="#000000" stroke-width="2" points="280.75,-538 171.75,-538 171.75,-488 280.75,-488 280.75,-538"/>
<text text-anchor="middle" x="226.25" y="-516.8" font-family="Arial" font-size="14.00" fill="#000000">&lt;&lt;construct&gt;&gt;</text>
<text text-anchor="middle" x="226.25" y="-501.8" font-family="Arial" font-size="14.00" fill="#000000">Field</text>
</g>
<!-- DataVariable&#45;&gt;Field -->
<g id="edge1" class="edge">
<title>DataVariable&#45;&gt;Field</title>
<path fill="none" stroke="#000000" d="M226.25,-564.836C226.25,-564.836 226.25,-538.1075 226.25,-538.1075"/>
<polygon fill="#000000" stroke="#000000" points="226.25,-574.836 221.7501,-564.836 226.25,-569.836 226.2501,-564.836 226.2501,-564.836 226.2501,-564.836 226.25,-569.836 230.7501,-564.836 226.25,-574.836 226.25,-574.836"/>
</g>
<!-- Domain -->
<g id="node3" class="node">
<title>Domain</title>
<polygon fill="#c3ffc2" stroke="#000000" stroke-width="2" points="280.75,-335 171.75,-335 171.75,-285 280.75,-285 280.75,-335"/>
<text text-anchor="middle" x="226.25" y="-313.8" font-family="Arial" font-size="14.00" fill="#000000">&lt;&lt;construct&gt;&gt;</text>
<text text-anchor="middle" x="226.25" y="-298.8" font-family="Arial" font-size="14.00" fill="#000000">Domain</text>
</g>
<!-- DomainAxis -->
<g id="node6" class="node">
<title>DomainAxis</title>
<polygon fill="#c3ffc2" stroke="#000000" stroke-width="2" points="444.75,-335 335.75,-335 335.75,-285 444.75,-285 444.75,-335"/>
<text text-anchor="middle" x="390.25" y="-313.8" font-family="Arial" font-size="14.00" fill="#000000">&lt;&lt;construct&gt;&gt;</text>
<text text-anchor="middle" x="390.25" y="-298.8" font-family="Arial" font-size="14.00" fill="#000000">DomainAxis</text>
</g>
<!-- Domain&#45;&gt;DomainAxis -->
<g id="edge9" class="edge">
<title>Domain&#45;&gt;DomainAxis</title>
<path fill="none" stroke="#000000" d="M290.8596,-318C290.8596,-318 323.5994,-318 323.5994,-318"/>
<polygon fill="#000000" stroke="#000000" points="335.5994,-318 325.5994,-322.5 330.5994,-318 325.5994,-318 325.5994,-318 325.5994,-318 330.5994,-318 325.5994,-313.5 335.5994,-318 335.5994,-318"/>
<polygon fill="#000000" stroke="#000000" points="292.8596,-318 286.8596,-322 280.8596,-318 286.8596,-314 292.8596,-318"/>
<text text-anchor="middle" x="324.0994" y="-321.2" font-family="Arial" font-size="11.00" fill="#000000">0..* &#160;</text>
</g>
<!-- DomainAncillary -->
<g id="node7" class="node">
<title>DomainAncillary</title>
<polygon fill="#c3ffc2" stroke="#000000" stroke-width="2" points="154.25,-239 32.25,-239 32.25,-189 154.25,-189 154.25,-239"/>
<text text-anchor="middle" x="93.25" y="-217.8" font-family="Arial" font-size="14.00" fill="#000000">&lt;&lt;construct&gt;&gt;</text>
<text text-anchor="middle" x="93.25" y="-202.8" font-family="Arial" font-size="14.00" fill="#000000">DomainAncillary</text>
</g>
<!-- Domain&#45;&gt;DomainAncillary -->
<g id="edge14" class="edge">
<title>Domain&#45;&gt;DomainAncillary</title>
<path fill="none" stroke="#000000" d="M159.5564,-297C159.5564,-297 117.5,-297 117.5,-297 117.5,-297 117.5,-249.3537 117.5,-249.3537"/>
<polygon fill="#000000" stroke="#000000" points="159.5564,-297.0001 165.5564,-293 171.5564,-297 165.5564,-301 159.5564,-297.0001"/>
<polygon fill="#000000" stroke="#000000" points="117.5,-239.3537 122.0001,-249.3537 117.5,-244.3537 117.5001,-249.3537 117.5001,-249.3537 117.5001,-249.3537 117.5,-244.3537 113.0001,-249.3538 117.5,-239.3537 117.5,-239.3537"/>
<text text-anchor="middle" x="106" y="-242.5537" font-family="Arial" font-size="11.00" fill="#000000">0..* &#160;</text>
</g>
<!-- GenericCoordinate -->
<g id="node13" class="node">
<title>GenericCoordinate</title>
<polygon fill="#ffffff" stroke="#000000" stroke-width="2" points="280.25,-248 172.25,-248 172.25,-180 280.25,-180 280.25,-248"/>
<text text-anchor="middle" x="226.25" y="-232.8" font-family="Arial" font-size="14.00" fill="#000000">&lt;&lt;abstract&gt;&gt;</text>
<text text-anchor="middle" x="226.25" y="-217.8" font-family="Arial" font-size="14.00" fill="#000000">Generic</text>
<text text-anchor="middle" x="226.25" y="-202.8" font-family="Arial" font-size="14.00" fill="#000000">Coordinate</text>
<text text-anchor="middle" x="226.25" y="-187.8" font-family="Arial" font-size="14.00" fill="#000000">Construct</text>
</g>
<!-- Domain&#45;&gt;GenericCoordinate -->
<g id="edge6" class="edge">
<title>Domain&#45;&gt;GenericCoordinate</title>
<path fill="none" stroke="#000000" d="M226.25,-274.7771C226.25,-274.7771 226.25,-260.0783 226.25,-260.0783"/>
<polygon fill="#000000" stroke="#000000" points="226.25,-248.0783 230.75,-258.0783 226.25,-253.0783 226.25,-258.0783 226.25,-258.0783 226.25,-258.0783 226.25,-253.0783 221.75,-258.0783 226.25,-248.0783 226.25,-248.0783"/>
<polygon fill="#000000" stroke="#000000" points="226.25,-272.7771 230.25,-278.7771 226.25,-284.7771 222.25,-278.7771 226.25,-272.7771"/>
<text text-anchor="middle" x="213.25" y="-251.2783" font-family="Arial" font-size="11.00" fill="#000000">0..* &#160;&#160;</text>
</g>
<!-- route7 -->
<g id="node20" class="node">
<title>route7</title>
<polygon fill="#c3ffc2" stroke="transparent" stroke-width="2" points="299.75,-214.5 298.75,-214.5 298.75,-213.5 299.75,-213.5 299.75,-214.5"/>
</g>
<!-- Domain&#45;&gt;route7 -->
<g id="edge12" class="edge">
<title>Domain&#45;&gt;route7</title>
<path fill="none" stroke="#000000" d="M292.829,-301C292.829,-301 299.25,-301 299.25,-301 299.25,-301 299.25,-221.9651 299.25,-214.5556"/>
<polygon fill="#000000" stroke="#000000" points="292.829,-301.0001 286.829,-305 280.829,-301 286.8291,-297 292.829,-301.0001"/>
</g>
<!-- route2 -->
<g id="node15" class="node">
<title>route2</title>
<polygon fill="#c3ffc2" stroke="transparent" stroke-width="2" points="390.75,-513.5 389.75,-513.5 389.75,-512.5 390.75,-512.5 390.75,-513.5"/>
</g>
<!-- Field&#45;&gt;route2 -->
<g id="edge5" class="edge">
<title>Field&#45;&gt;route2</title>
<path fill="none" stroke="#000000" d="M292.8596,-513C292.8596,-513 389.5456,-513 389.5456,-513"/>
<polygon fill="#000000" stroke="#000000" points="292.8596,-513.0001 286.8596,-517 280.8596,-513 286.8597,-509 292.8596,-513.0001"/>
</g>
<!-- route8 -->
<g id="node21" class="node">
<title>route8</title>
<polygon fill="#c3ffc2" stroke="transparent" stroke-width="2" points="226.75,-426.5 225.75,-426.5 225.75,-425.5 226.75,-425.5 226.75,-426.5"/>
</g>
<!-- Field&#45;&gt;route8 -->
<g id="edge2" class="edge">
<title>Field&#45;&gt;route8</title>
<path fill="none" stroke="#000000" d="M226.25,-475.836C226.25,-475.836 226.25,-426.6396 226.25,-426.6396"/>
<polygon fill="none" stroke="#000000" points="226.2501,-475.836 230.25,-481.836 226.25,-487.836 222.25,-481.836 226.2501,-475.836"/>
</g>
<!-- CellMethod -->
<g id="node5" class="node">
<title>CellMethod</title>
<polygon fill="#c3ffc2" stroke="#000000" stroke-width="2" points="444.75,-451 335.75,-451 335.75,-401 444.75,-401 444.75,-451"/>
<text text-anchor="middle" x="390.25" y="-429.8" font-family="Arial" font-size="14.00" fill="#000000">&lt;&lt;construct&gt;&gt;</text>
<text text-anchor="middle" x="390.25" y="-414.8" font-family="Arial" font-size="14.00" fill="#000000">CellMethod</text>
</g>
<!-- CellMethod&#45;&gt;DomainAxis -->
<g id="edge23" class="edge">
<title>CellMethod&#45;&gt;DomainAxis</title>
<path fill="none" stroke="#000000" d="M390.25,-390.8297C390.25,-390.8297 390.25,-347.1212 390.25,-347.1212"/>
<polygon fill="#000000" stroke="#000000" points="390.25,-335.1212 394.75,-345.1211 390.25,-340.1212 390.25,-345.1212 390.25,-345.1212 390.25,-345.1212 390.25,-340.1212 385.75,-345.1212 390.25,-335.1212 390.25,-335.1212"/>
<polygon fill="#000000" stroke="#000000" points="390.25,-388.8297 394.25,-394.8297 390.25,-400.8297 386.25,-394.8297 390.25,-388.8297"/>
<text text-anchor="middle" x="378.75" y="-338.3212" font-family="Arial" font-size="11.00" fill="#000000">1..* &#160;</text>
</g>
<!-- CellMeasure -->
<g id="node8" class="node">
<title>CellMeasure</title>
<polygon fill="#c3ffc2" stroke="#000000" stroke-width="2" points="444.75,-239 335.75,-239 335.75,-189 444.75,-189 444.75,-239"/>
<text text-anchor="middle" x="390.25" y="-217.8" font-family="Arial" font-size="14.00" fill="#000000">&lt;&lt;construct&gt;&gt;</text>
<text text-anchor="middle" x="390.25" y="-202.8" font-family="Arial" font-size="14.00" fill="#000000">CellMeasure</text>
</g>
<!-- DomainAxis&#45;&gt;CellMeasure -->
<!-- AuxiliaryCoordinate -->
<g id="node10" class="node">
<title>AuxiliaryCoordinate</title>
<polygon fill="#c3ffc2" stroke="#000000" stroke-width="2" points="458.75,-143 315.75,-143 315.75,-93 458.75,-93 458.75,-143"/>
<text text-anchor="middle" x="387.25" y="-121.8" font-family="Arial" font-size="14.00" fill="#000000">&lt;&lt;construct&gt;&gt;</text>
<text text-anchor="middle" x="387.25" y="-106.8" font-family="Arial" font-size="14.00" fill="#000000">AuxillaryCoordinate</text>
</g>
<!-- DomainAxis&#45;&gt;AuxiliaryCoordinate -->
<!-- CoordinateReference -->
<g id="node9" class="node">
<title>CoordinateReference</title>
<polygon fill="#c3ffc2" stroke="#000000" stroke-width="2" points="172.75,-56 13.75,-56 13.75,-6 172.75,-6 172.75,-56"/>
<text text-anchor="middle" x="93.25" y="-34.8" font-family="Arial" font-size="14.00" fill="#000000">&lt;&lt;construct&gt;&gt;</text>
<text text-anchor="middle" x="93.25" y="-19.8" font-family="Arial" font-size="14.00" fill="#000000">CoordinateReference </text>
</g>
<!-- DomainAncillary&#45;&gt;CoordinateReference -->
<g id="edge22" class="edge">
<title>DomainAncillary&#45;&gt;CoordinateReference</title>
<path fill="none" stroke="#000000" d="M93.25,-178.9383C93.25,-178.9383 93.25,-56.0519 93.25,-56.0519"/>
<polygon fill="#000000" stroke="#000000" points="93.25,-188.9383 88.7501,-178.9383 93.25,-183.9383 93.2501,-178.9383 93.2501,-178.9383 93.2501,-178.9383 93.25,-183.9383 97.7501,-178.9384 93.25,-188.9383 93.25,-188.9383"/>
<text text-anchor="middle" x="88.6012" y="-176.169" font-family="Arial" font-size="11.00" fill="#000000">0..* &#160;&#160;&#160;&#160;&#160;</text>
</g>
<!-- CellMeasure&#45;&gt;AuxiliaryCoordinate -->
<!-- DimensionCoordinate -->
<g id="node11" class="node">
<title>DimensionCoordinate</title>
<polygon fill="#c3ffc2" stroke="#000000" stroke-width="2" points="465.75,-56 308.75,-56 308.75,-6 465.75,-6 465.75,-56"/>
<text text-anchor="middle" x="387.25" y="-34.8" font-family="Arial" font-size="14.00" fill="#000000">&lt;&lt;construct&gt;&gt;</text>
<text text-anchor="middle" x="387.25" y="-19.8" font-family="Arial" font-size="14.00" fill="#000000">DimensionCoordinate</text>
</g>
<!-- AuxiliaryCoordinate&#45;&gt;DimensionCoordinate -->
<!-- FieldAncillary -->
<g id="node12" class="node">
<title>FieldAncillary</title>
<polygon fill="#c3ffc2" stroke="#000000" stroke-width="2" points="189.75,-451 80.75,-451 80.75,-401 189.75,-401 189.75,-451"/>
<text text-anchor="middle" x="135.25" y="-429.8" font-family="Arial" font-size="14.00" fill="#000000">&lt;&lt;construct&gt;&gt;</text>
<text text-anchor="middle" x="135.25" y="-414.8" font-family="Arial" font-size="14.00" fill="#000000">FieldAncillary</text>
</g>
<!-- FieldAncillary&#45;&gt;Domain -->
<g id="edge15" class="edge">
<title>FieldAncillary&#45;&gt;Domain</title>
<path fill="none" stroke="#000000" d="M180.75,-400.8297C180.75,-400.8297 180.75,-345.1212 180.75,-345.1212"/>
<polygon fill="#000000" stroke="#000000" points="180.75,-335.1212 185.2501,-345.1211 180.75,-340.1212 180.7501,-345.1212 180.7501,-345.1212 180.7501,-345.1212 180.75,-340.1212 176.2501,-345.1212 180.75,-335.1212 180.75,-335.1212"/>
<text text-anchor="middle" x="173.25" y="-371.8" font-family="Arial" font-size="14.00" fill="#000000">uses &#160;&#160;&#160;&#160;&#160;</text>
<text text-anchor="middle" x="173.25" y="-356.8" font-family="Arial" font-size="14.00" fill="#000000">parent &#160;&#160;&#160;&#160;&#160;&#160;&#160;</text>
</g>
<!-- route3 -->
<g id="node16" class="node">
<title>route3</title>
<polygon fill="#c3ffc2" stroke="transparent" stroke-width="2" points="226.75,-118.5 225.75,-118.5 225.75,-117.5 226.75,-117.5 226.75,-118.5"/>
</g>
<!-- GenericCoordinate&#45;&gt;route3 -->
<g id="edge24" class="edge">
<title>GenericCoordinate&#45;&gt;route3</title>
<path fill="none" stroke="#000000" d="M226.25,-169.8837C226.25,-169.8837 226.25,-118.8704 226.25,-118.8704"/>
<polygon fill="#000000" stroke="#000000" points="226.25,-179.8837 221.7501,-169.8836 226.25,-174.8837 226.2501,-169.8837 226.2501,-169.8837 226.2501,-169.8837 226.25,-174.8837 230.7501,-169.8837 226.25,-179.8837 226.25,-179.8837"/>
<text text-anchor="middle" x="221.6012" y="-167.1143" font-family="Arial" font-size="11.00" fill="#000000">0..* &#160;&#160;&#160;&#160;&#160;</text>
</g>
<!-- route4 -->
<g id="node17" class="node">
<title>route4</title>
<polygon fill="#c3ffc2" stroke="transparent" stroke-width="2" points="251.75,-118.5 250.75,-118.5 250.75,-117.5 251.75,-117.5 251.75,-118.5"/>
</g>
<!-- GenericCoordinate&#45;&gt;route4 -->
<g id="edge18" class="edge">
<title>GenericCoordinate&#45;&gt;route4</title>
<path fill="none" stroke="#000000" d="M251.25,-169.8837C251.25,-169.8837 251.25,-118.8704 251.25,-118.8704"/>
<polygon fill="none" stroke="#000000" points="247.7501,-169.8837 251.25,-179.8837 254.7501,-169.8837 247.7501,-169.8837"/>
</g>
<!-- route1 -->
<g id="node14" class="node">
<title>route1</title>
<polygon fill="#c3ffc2" stroke="transparent" stroke-width="2" points="135.75,-513.5 134.75,-513.5 134.75,-512.5 135.75,-512.5 135.75,-513.5"/>
</g>
<!-- route1&#45;&gt;Field -->
<g id="edge4" class="edge">
<title>route1&#45;&gt;Field</title>
<path fill="none" stroke="#000000" d="M135.8311,-513C135.8311,-513 159.3055,-513 159.3055,-513"/>
<polygon fill="#000000" stroke="#000000" points="159.3055,-513.0001 165.3054,-509 171.3055,-513 165.3055,-517 159.3055,-513.0001"/>
</g>
<!-- route1&#45;&gt;FieldAncillary -->
<g id="edge8" class="edge">
<title>route1&#45;&gt;FieldAncillary</title>
<path fill="none" stroke="#000000" d="M135.25,-512.4444C135.25,-512.4444 135.25,-461.3979 135.25,-461.3979"/>
<polygon fill="#000000" stroke="#000000" points="135.25,-451.3979 139.7501,-461.3978 135.25,-456.3979 135.2501,-461.3979 135.2501,-461.3979 135.2501,-461.3979 135.25,-456.3979 130.7501,-461.3979 135.25,-451.3979 135.25,-451.3979"/>
<text text-anchor="middle" x="123.75" y="-454.5979" font-family="Arial" font-size="11.00" fill="#000000">0..* &#160;</text>
</g>
<!-- route2&#45;&gt;CellMethod -->
<g id="edge7" class="edge">
<title>route2&#45;&gt;CellMethod</title>
<path fill="none" stroke="#000000" d="M390.25,-512.4444C390.25,-512.4444 390.25,-461.3979 390.25,-461.3979"/>
<polygon fill="#000000" stroke="#000000" points="390.25,-451.3979 394.7501,-461.3978 390.25,-456.3979 390.2501,-461.3979 390.2501,-461.3979 390.2501,-461.3979 390.25,-456.3979 385.7501,-461.3979 390.25,-451.3979 390.25,-451.3979"/>
<text text-anchor="middle" x="377.25" y="-454.5979" font-family="Arial" font-size="11.00" fill="#000000">0..* &#160;&#160;</text>
</g>
<!-- route3&#45;&gt;CoordinateReference -->
<g id="edge25" class="edge">
<title>route3&#45;&gt;CoordinateReference</title>
<path fill="none" stroke="#000000" d="M225.5397,-118C218.5908,-118 163,-118 163,-118 163,-118 163,-81.8584 163,-56.164"/>
</g>
<!-- route4&#45;&gt;AuxiliaryCoordinate -->
<g id="edge19" class="edge">
<title>route4&#45;&gt;AuxiliaryCoordinate</title>
<path fill="none" stroke="#000000" d="M252.1185,-118C257.4121,-118 286.093,-118 315.678,-118"/>
</g>
<!-- route5 -->
<g id="node18" class="node">
<title>route5</title>
<polygon fill="#c3ffc2" stroke="transparent" stroke-width="2" points="260.75,-31.5 259.75,-31.5 259.75,-30.5 260.75,-30.5 260.75,-31.5"/>
</g>
<!-- route4&#45;&gt;route5 -->
<g id="edge20" class="edge">
<title>route4&#45;&gt;route5</title>
<path fill="none" stroke="#000000" d="M251.25,-117.4444C251.25,-110.0349 251.25,-31 251.25,-31 251.25,-31 257.1914,-31 259.4194,-31"/>
</g>
<!-- route5&#45;&gt;DimensionCoordinate -->
<g id="edge21" class="edge">
<title>route5&#45;&gt;DimensionCoordinate</title>
<path fill="none" stroke="#000000" d="M261.061,-31C265.2861,-31 285.4652,-31 308.4896,-31"/>
</g>
<!-- route6 -->
<g id="node19" class="node">
<title>route6</title>
<polygon fill="#c3ffc2" stroke="transparent" stroke-width="2" points="70.75,-310.5 69.75,-310.5 69.75,-309.5 70.75,-309.5 70.75,-310.5"/>
</g>
<!-- route6&#45;&gt;Domain -->
<g id="edge10" class="edge">
<title>route6&#45;&gt;Domain</title>
<path fill="none" stroke="#000000" d="M70.9455,-310C70.9455,-310 159.3908,-310 159.3908,-310"/>
<polygon fill="#000000" stroke="#000000" points="159.3908,-310.0001 165.3907,-306 171.3908,-310 165.3908,-314 159.3908,-310.0001"/>
</g>
<!-- route6&#45;&gt;CoordinateReference -->
<g id="edge11" class="edge">
<title>route6&#45;&gt;CoordinateReference</title>
<path fill="none" stroke="#000000" d="M69.7194,-310C64.5283,-310 23,-310 23,-310 23,-310 23,-66.2515 23,-66.2515"/>
<polygon fill="#000000" stroke="#000000" points="23,-56.2515 27.5001,-66.2514 23,-61.2515 23.0001,-66.2515 23.0001,-66.2515 23.0001,-66.2515 23,-61.2515 18.5001,-66.2515 23,-56.2515 23,-56.2515"/>
<text text-anchor="middle" x="11.5" y="-59.4515" font-family="Arial" font-size="11.00" fill="#000000">0..* &#160;</text>
</g>
<!-- route7&#45;&gt;CellMeasure -->
<g id="edge13" class="edge">
<title>route7&#45;&gt;CellMeasure</title>
<path fill="none" stroke="#000000" d="M299.8311,-214C299.8311,-214 325.3055,-214 325.3055,-214"/>
<polygon fill="#000000" stroke="#000000" points="335.3055,-214 325.3055,-218.5001 330.3055,-214 325.3055,-214.0001 325.3055,-214.0001 325.3055,-214.0001 330.3055,-214 325.3054,-209.5001 335.3055,-214 335.3055,-214"/>
<text text-anchor="middle" x="323.8055" y="-217.2" font-family="Arial" font-size="11.00" fill="#000000">0..* &#160;</text>
</g>
<!-- route8&#45;&gt;Domain -->
<g id="edge3" class="edge">
<title>route8&#45;&gt;Domain</title>
<path fill="none" stroke="#000000" d="M226.25,-425.2592C226.25,-425.2592 226.25,-345.0141 226.25,-345.0141"/>
<polygon fill="#000000" stroke="#000000" points="226.25,-335.0141 230.7501,-345.014 226.25,-340.0141 226.2501,-345.0141 226.2501,-345.0141 226.2501,-345.0141 226.25,-340.0141 221.7501,-345.0141 226.25,-335.0141 226.25,-335.0141"/>
<text text-anchor="middle" x="214.75" y="-338.2141" font-family="Times,serif" font-size="11.00" fill="#000000">0..1 &#160;</text>
</g>
<!-- route9&#45;&gt;Domain -->
<g id="edge17" class="edge">
<title>route9&#45;&gt;Domain</title>
<path fill="none" stroke="#000000" d="M62.25,-425.3423C62.25,-416.5701 62.25,-323 62.25,-323 62.25,-323 123.9327,-323 171.6404,-323"/>
</g>
</g>
</svg>
