<?xml version="1.0" encoding="UTF-8" standalone="no"?>
<!DOCTYPE svg PUBLIC "-//W3C//DTD SVG 1.1//EN"
 "http://www.w3.org/Graphics/SVG/1.1/DTD/svg11.dtd">
<!-- Generated by graphviz version 2.43.0 (0)
 -->
<!-- Title: %3 Pages: 1 -->
<svg width="415pt" height="374pt"
 viewBox="0.00 0.00 414.90 374.39" xmlns="http://www.w3.org/2000/svg" xmlns:xlink="http://www.w3.org/1999/xlink">
<g id="graph0" class="graph" transform="scale(1 1) rotate(0) translate(4 370.39)">
<title>%3</title>
<polygon fill="white" stroke="transparent" points="-4,4 -4,-370.39 410.9,-370.39 410.9,4 -4,4"/>
<!-- &#45;1110970561184274239 -->
<g id="node1" class="node">
<title>&#45;1110970561184274239</title>
<ellipse fill="none" stroke="black" cx="27.95" cy="-266.44" rx="27.9" ry="27.9"/>
<text text-anchor="middle" x="27.95" y="-262.74" font-family="Helvetica,sans-Serif" font-size="14.00">add</text>
</g>
<!-- 8528708649465365378 -->
<g id="node2" class="node">
<title>8528708649465365378</title>
<polygon fill="none" stroke="black" points="54.95,-366.39 0.95,-366.39 0.95,-330.39 54.95,-330.39 54.95,-366.39"/>
<text text-anchor="middle" x="27.95" y="-344.69" font-family="Helvetica,sans-Serif" font-size="14.00">(0, 0)</text>
</g>
<!-- &#45;1110970561184274239&#45;&gt;8528708649465365378 -->
<g id="edge1" class="edge">
<title>&#45;1110970561184274239&#45;&gt;8528708649465365378</title>
<path fill="none" stroke="black" d="M27.95,-294.51C27.95,-302.7 27.95,-311.7 27.95,-319.91"/>
<polygon fill="black" stroke="black" points="24.45,-320.13 27.95,-330.13 31.45,-320.13 24.45,-320.13"/>
</g>
<!-- 1301669978005148311 -->
<g id="node3" class="node">
<title>1301669978005148311</title>
<polygon fill="none" stroke="black" points="56.95,-36 2.95,-36 2.95,0 56.95,0 56.95,-36"/>
<text text-anchor="middle" x="29.95" y="-14.3" font-family="Helvetica,sans-Serif" font-size="14.00">(0, 0)</text>
</g>
<!-- 1301669978005148311&#45;&gt;&#45;1110970561184274239 -->
<g id="edge2" class="edge">
<title>1301669978005148311&#45;&gt;&#45;1110970561184274239</title>
<path fill="none" stroke="black" d="M25.48,-36.05C23.01,-46.37 20.2,-59.85 18.95,-72 13.02,-129.7 15.88,-144.64 19.95,-202.49 20.54,-210.93 21.5,-219.97 22.55,-228.49"/>
<polygon fill="black" stroke="black" points="19.09,-229.09 23.85,-238.55 26.04,-228.18 19.09,-229.09"/>
</g>
<!-- 8429128607975735370 -->
<g id="node17" class="node">
<title>8429128607975735370</title>
<ellipse fill="none" stroke="black" cx="56.95" cy="-101.25" rx="29.5" ry="29.5"/>
<text text-anchor="middle" x="56.95" y="-97.55" font-family="Helvetica,sans-Serif" font-size="14.00">pow</text>
</g>
<!-- 1301669978005148311&#45;&gt;8429128607975735370 -->
<g id="edge15" class="edge">
<title>1301669978005148311&#45;&gt;8429128607975735370</title>
<path fill="none" stroke="black" d="M35.67,-36.23C38.32,-44.18 41.56,-53.95 44.71,-63.43"/>
<polygon fill="black" stroke="black" points="41.46,-64.74 47.94,-73.13 48.1,-62.54 41.46,-64.74"/>
</g>
<!-- &#45;3068643085548082377 -->
<g id="node4" class="node">
<title>&#45;3068643085548082377</title>
<polygon fill="none" stroke="black" points="82.95,-202.49 28.95,-202.49 28.95,-166.49 82.95,-166.49 82.95,-202.49"/>
<text text-anchor="middle" x="55.95" y="-180.79" font-family="Helvetica,sans-Serif" font-size="14.00">(0, 0)</text>
</g>
<!-- &#45;3068643085548082377&#45;&gt;&#45;1110970561184274239 -->
<g id="edge3" class="edge">
<title>&#45;3068643085548082377&#45;&gt;&#45;1110970561184274239</title>
<path fill="none" stroke="black" d="M49.87,-202.84C47.05,-210.89 43.6,-220.75 40.27,-230.25"/>
<polygon fill="black" stroke="black" points="36.88,-229.34 36.88,-239.93 43.49,-231.65 36.88,-229.34"/>
</g>
<!-- &#45;6742417226514310578 -->
<g id="node5" class="node">
<title>&#45;6742417226514310578</title>
<ellipse fill="none" stroke="black" cx="149.95" cy="-266.44" rx="27.9" ry="27.9"/>
<text text-anchor="middle" x="149.95" y="-262.74" font-family="Helvetica,sans-Serif" font-size="14.00">add</text>
</g>
<!-- &#45;3410394668142187813 -->
<g id="node6" class="node">
<title>&#45;3410394668142187813</title>
<polygon fill="none" stroke="black" points="176.95,-366.39 122.95,-366.39 122.95,-330.39 176.95,-330.39 176.95,-366.39"/>
<text text-anchor="middle" x="149.95" y="-344.69" font-family="Helvetica,sans-Serif" font-size="14.00">(0, 1)</text>
</g>
<!-- &#45;6742417226514310578&#45;&gt;&#45;3410394668142187813 -->
<g id="edge4" class="edge">
<title>&#45;6742417226514310578&#45;&gt;&#45;3410394668142187813</title>
<path fill="none" stroke="black" d="M149.95,-294.51C149.95,-302.7 149.95,-311.7 149.95,-319.91"/>
<polygon fill="black" stroke="black" points="146.45,-320.13 149.95,-330.13 153.45,-320.13 146.45,-320.13"/>
</g>
<!-- 7809310734107146736 -->
<g id="node7" class="node">
<title>7809310734107146736</title>
<polygon fill="none" stroke="black" points="149.95,-36 95.95,-36 95.95,0 149.95,0 149.95,-36"/>
<text text-anchor="middle" x="122.95" y="-14.3" font-family="Helvetica,sans-Serif" font-size="14.00">(0, 1)</text>
</g>
<!-- 7809310734107146736&#45;&gt;&#45;6742417226514310578 -->
<g id="edge5" class="edge">
<title>7809310734107146736&#45;&gt;&#45;6742417226514310578</title>
<path fill="none" stroke="black" d="M122.9,-36.06C123.04,-68.63 124.5,-141.79 133.95,-202.49 135.32,-211.3 137.37,-220.68 139.55,-229.42"/>
<polygon fill="black" stroke="black" points="136.22,-230.54 142.13,-239.33 143,-228.77 136.22,-230.54"/>
</g>
<!-- &#45;6656097495021768761 -->
<g id="node19" class="node">
<title>&#45;6656097495021768761</title>
<ellipse fill="none" stroke="black" cx="170.95" cy="-101.25" rx="29.5" ry="29.5"/>
<text text-anchor="middle" x="170.95" y="-97.55" font-family="Helvetica,sans-Serif" font-size="14.00">pow</text>
</g>
<!-- 7809310734107146736&#45;&gt;&#45;6656097495021768761 -->
<g id="edge17" class="edge">
<title>7809310734107146736&#45;&gt;&#45;6656097495021768761</title>
<path fill="none" stroke="black" d="M133.13,-36.23C138.42,-45.18 145.06,-56.43 151.3,-67"/>
<polygon fill="black" stroke="black" points="148.31,-68.81 156.41,-75.64 154.34,-65.25 148.31,-68.81"/>
</g>
<!-- 6086669576204404745 -->
<g id="node8" class="node">
<title>6086669576204404745</title>
<polygon fill="none" stroke="black" points="196.95,-202.49 142.95,-202.49 142.95,-166.49 196.95,-166.49 196.95,-202.49"/>
<text text-anchor="middle" x="169.95" y="-180.79" font-family="Helvetica,sans-Serif" font-size="14.00">(0, 1)</text>
</g>
<!-- 6086669576204404745&#45;&gt;&#45;6742417226514310578 -->
<g id="edge6" class="edge">
<title>6086669576204404745&#45;&gt;&#45;6742417226514310578</title>
<path fill="none" stroke="black" d="M165.61,-202.84C163.67,-210.6 161.3,-220.05 159.01,-229.24"/>
<polygon fill="black" stroke="black" points="155.59,-228.45 156.56,-239 162.38,-230.15 155.59,-228.45"/>
</g>
<!-- 5781434410111584017 -->
<g id="node9" class="node">
<title>5781434410111584017</title>
<ellipse fill="none" stroke="black" cx="285.95" cy="-266.44" rx="27.9" ry="27.9"/>
<text text-anchor="middle" x="285.95" y="-262.74" font-family="Helvetica,sans-Serif" font-size="14.00">add</text>
</g>
<!-- 6091650802725119685 -->
<g id="node10" class="node">
<title>6091650802725119685</title>
<polygon fill="none" stroke="black" points="312.95,-366.39 258.95,-366.39 258.95,-330.39 312.95,-330.39 312.95,-366.39"/>
<text text-anchor="middle" x="285.95" y="-344.69" font-family="Helvetica,sans-Serif" font-size="14.00">(1, 0)</text>
</g>
<!-- 5781434410111584017&#45;&gt;6091650802725119685 -->
<g id="edge7" class="edge">
<title>5781434410111584017&#45;&gt;6091650802725119685</title>
<path fill="none" stroke="black" d="M285.95,-294.51C285.95,-302.7 285.95,-311.7 285.95,-319.91"/>
<polygon fill="black" stroke="black" points="282.45,-320.13 285.95,-330.13 289.45,-320.13 282.45,-320.13"/>
</g>
<!-- &#45;1564350245932192551 -->
<g id="node11" class="node">
<title>&#45;1564350245932192551</title>
<polygon fill="none" stroke="black" points="318.95,-36 264.95,-36 264.95,0 318.95,0 318.95,-36"/>
<text text-anchor="middle" x="291.95" y="-14.3" font-family="Helvetica,sans-Serif" font-size="14.00">(1, 0)</text>
</g>
<!-- &#45;1564350245932192551&#45;&gt;5781434410111584017 -->
<g id="edge8" class="edge">
<title>&#45;1564350245932192551&#45;&gt;5781434410111584017</title>
<path fill="none" stroke="black" d="M291.53,-36.33C290.56,-75.98 288.17,-174.03 286.86,-228.13"/>
<polygon fill="black" stroke="black" points="283.35,-228.25 286.61,-238.33 290.35,-228.42 283.35,-228.25"/>
</g>
<!-- 4474719297825561205 -->
<g id="node20" class="node">
<title>4474719297825561205</title>
<ellipse fill="none" stroke="black" cx="246.95" cy="-101.25" rx="29.5" ry="29.5"/>
<text text-anchor="middle" x="246.95" y="-97.55" font-family="Helvetica,sans-Serif" font-size="14.00">pow</text>
</g>
<!-- &#45;1564350245932192551&#45;&gt;4474719297825561205 -->
<g id="edge20" class="edge">
<title>&#45;1564350245932192551&#45;&gt;4474719297825561205</title>
<path fill="none" stroke="black" d="M282.4,-36.23C277.54,-45.02 271.44,-56.03 265.68,-66.42"/>
<polygon fill="black" stroke="black" points="262.53,-64.89 260.75,-75.33 268.65,-68.28 262.53,-64.89"/>
</g>
<!-- 2383148183431937547 -->
<g id="node12" class="node">
<title>2383148183431937547</title>
<polygon fill="none" stroke="black" points="274.95,-202.49 220.95,-202.49 220.95,-166.49 274.95,-166.49 274.95,-202.49"/>
<text text-anchor="middle" x="247.95" y="-180.79" font-family="Helvetica,sans-Serif" font-size="14.00">(1, 0)</text>
</g>
<!-- 2383148183431937547&#45;&gt;5781434410111584017 -->
<g id="edge9" class="edge">
<title>2383148183431937547&#45;&gt;5781434410111584017</title>
<path fill="none" stroke="black" d="M256.19,-202.84C260.2,-211.26 265.15,-221.68 269.86,-231.59"/>
<polygon fill="black" stroke="black" points="266.8,-233.32 274.26,-240.85 273.13,-230.31 266.8,-233.32"/>
</g>
<!-- 4977307504963010975 -->
<g id="node13" class="node">
<title>4977307504963010975</title>
<ellipse fill="none" stroke="black" cx="378.95" cy="-266.44" rx="27.9" ry="27.9"/>
<text text-anchor="middle" x="378.95" y="-262.74" font-family="Helvetica,sans-Serif" font-size="14.00">add</text>
</g>
<!-- &#45;5847452514882433506 -->
<g id="node14" class="node">
<title>&#45;5847452514882433506</title>
<polygon fill="none" stroke="black" points="405.95,-366.39 351.95,-366.39 351.95,-330.39 405.95,-330.39 405.95,-366.39"/>
<text text-anchor="middle" x="378.95" y="-344.69" font-family="Helvetica,sans-Serif" font-size="14.00">(1, 1)</text>
</g>
<!-- 4977307504963010975&#45;&gt;&#45;5847452514882433506 -->
<g id="edge10" class="edge">
<title>4977307504963010975&#45;&gt;&#45;5847452514882433506</title>
<path fill="none" stroke="black" d="M378.95,-294.51C378.95,-302.7 378.95,-311.7 378.95,-319.91"/>
<polygon fill="black" stroke="black" points="375.45,-320.13 378.95,-330.13 382.45,-320.13 375.45,-320.13"/>
</g>
<!-- 4943290510169805874 -->
<g id="node15" class="node">
<title>4943290510169805874</title>
<polygon fill="none" stroke="black" points="398.95,-36 344.95,-36 344.95,0 398.95,0 398.95,-36"/>
<text text-anchor="middle" x="371.95" y="-14.3" font-family="Helvetica,sans-Serif" font-size="14.00">(1, 1)</text>
</g>
<!-- 4943290510169805874&#45;&gt;4977307504963010975 -->
<g id="edge11" class="edge">
<title>4943290510169805874&#45;&gt;4977307504963010975</title>
<path fill="none" stroke="black" d="M383.41,-36.33C389.32,-46.31 395.91,-59.35 398.95,-72 400.81,-79.76 398.55,-198.63 397.95,-202.49 396.53,-211.67 394.09,-221.38 391.43,-230.35"/>
<polygon fill="black" stroke="black" points="388.02,-229.5 388.36,-240.09 394.7,-231.6 388.02,-229.5"/>
</g>
<!-- 8714038470264453813 -->
<g id="node21" class="node">
<title>8714038470264453813</title>
<ellipse fill="none" stroke="black" cx="360.95" cy="-101.25" rx="29.5" ry="29.5"/>
<text text-anchor="middle" x="360.95" y="-97.55" font-family="Helvetica,sans-Serif" font-size="14.00">pow</text>
</g>
<!-- 4943290510169805874&#45;&gt;8714038470264453813 -->
<g id="edge23" class="edge">
<title>4943290510169805874&#45;&gt;8714038470264453813</title>
<path fill="none" stroke="black" d="M369.61,-36.23C368.59,-43.81 367.34,-53.04 366.11,-62.11"/>
<polygon fill="black" stroke="black" points="362.62,-61.79 364.75,-72.17 369.56,-62.73 362.62,-61.79"/>
</g>
<!-- &#45;2509925845540758819 -->
<g id="node16" class="node">
<title>&#45;2509925845540758819</title>
<polygon fill="none" stroke="black" points="388.95,-202.49 334.95,-202.49 334.95,-166.49 388.95,-166.49 388.95,-202.49"/>
<text text-anchor="middle" x="361.95" y="-180.79" font-family="Helvetica,sans-Serif" font-size="14.00">(1, 1)</text>
</g>
<!-- &#45;2509925845540758819&#45;&gt;4977307504963010975 -->
<g id="edge12" class="edge">
<title>&#45;2509925845540758819&#45;&gt;4977307504963010975</title>
<path fill="none" stroke="black" d="M365.64,-202.84C367.27,-210.52 369.25,-219.85 371.19,-228.94"/>
<polygon fill="black" stroke="black" points="367.82,-229.95 373.33,-239 374.67,-228.49 367.82,-229.95"/>
</g>
<!-- 8429128607975735370&#45;&gt;&#45;3068643085548082377 -->
<g id="edge13" class="edge">
<title>8429128607975735370&#45;&gt;&#45;3068643085548082377</title>
<path fill="none" stroke="black" d="M56.6,-130.66C56.5,-138.94 56.38,-147.95 56.28,-156.16"/>
<polygon fill="black" stroke="black" points="52.78,-156.3 56.16,-166.35 59.78,-156.39 52.78,-156.3"/>
</g>
<!-- 8031511257312997991 -->
<g id="node18" class="node">
<title>8031511257312997991</title>
<polygon fill="none" stroke="black" points="231.95,-36 177.95,-36 177.95,0 231.95,0 231.95,-36"/>
<text text-anchor="middle" x="204.95" y="-14.3" font-family="Helvetica,sans-Serif" font-size="14.00">()</text>
</g>
<!-- 8031511257312997991&#45;&gt;8429128607975735370 -->
<g id="edge14" class="edge">
<title>8031511257312997991&#45;&gt;8429128607975735370</title>
<path fill="none" stroke="black" d="M177.8,-33.9C153.47,-47.26 117.65,-66.93 91.32,-81.38"/>
<polygon fill="black" stroke="black" points="89.52,-78.37 82.44,-86.25 92.89,-84.51 89.52,-78.37"/>
</g>
<!-- 8031511257312997991&#45;&gt;&#45;6656097495021768761 -->
<g id="edge18" class="edge">
<title>8031511257312997991&#45;&gt;&#45;6656097495021768761</title>
<path fill="none" stroke="black" d="M197.74,-36.23C194.25,-44.56 189.93,-54.88 185.79,-64.79"/>
<polygon fill="black" stroke="black" points="182.53,-63.5 181.9,-74.08 188.99,-66.21 182.53,-63.5"/>
</g>
<!-- 8031511257312997991&#45;&gt;4474719297825561205 -->
<g id="edge21" class="edge">
<title>8031511257312997991&#45;&gt;4474719297825561205</title>
<path fill="none" stroke="black" d="M213.85,-36.23C218.32,-44.86 223.88,-55.63 229.17,-65.86"/>
<polygon fill="black" stroke="black" points="226.21,-67.74 233.91,-75.02 232.42,-64.53 226.21,-67.74"/>
</g>
<!-- 8031511257312997991&#45;&gt;8714038470264453813 -->
<g id="edge24" class="edge">
<title>8031511257312997991&#45;&gt;8714038470264453813</title>
<path fill="none" stroke="black" d="M232.12,-33.15C258.24,-46.75 297.82,-67.37 326.21,-82.16"/>
<polygon fill="black" stroke="black" points="324.89,-85.42 335.38,-86.93 328.13,-79.21 324.89,-85.42"/>
</g>
<!-- &#45;6656097495021768761&#45;&gt;6086669576204404745 -->
<g id="edge16" class="edge">
<title>&#45;6656097495021768761&#45;&gt;6086669576204404745</title>
<path fill="none" stroke="black" d="M170.6,-130.66C170.5,-138.94 170.38,-147.95 170.28,-156.16"/>
<polygon fill="black" stroke="black" points="166.78,-156.3 170.16,-166.35 173.78,-156.39 166.78,-156.3"/>
</g>
<!-- 4474719297825561205&#45;&gt;2383148183431937547 -->
<g id="edge19" class="edge">
<title>4474719297825561205&#45;&gt;2383148183431937547</title>
<path fill="none" stroke="black" d="M247.3,-130.66C247.4,-138.94 247.51,-147.95 247.61,-156.16"/>
<polygon fill="black" stroke="black" points="244.11,-156.39 247.74,-166.35 251.11,-156.3 244.11,-156.39"/>
</g>
<!-- 8714038470264453813&#45;&gt;&#45;2509925845540758819 -->
<g id="edge22" class="edge">
<title>8714038470264453813&#45;&gt;&#45;2509925845540758819</title>
<path fill="none" stroke="black" d="M361.3,-130.66C361.4,-138.94 361.51,-147.95 361.61,-156.16"/>
<polygon fill="black" stroke="black" points="358.11,-156.39 361.74,-166.35 365.11,-156.3 358.11,-156.39"/>
</g>
</g>
</svg>
